<svg width="25" height="27" viewBox="0 0 25 27" fill="none" xmlns="http://www.w3.org/2000/svg">
<path d="M12.4999 6.20833C6.057 6.20833 0.833252 4.90313 0.833252 3.29167C0.833252 1.68021 6.057 0.375 12.4999 0.375C18.9428 0.375 24.1666 1.6875 24.1666 3.29167C24.1666 4.89583 18.9428 6.20833 12.4999 6.20833ZM0.833252 23.7083C0.833252 25.3198 6.057 26.625 12.4999 26.625C18.9428 26.625 24.1666 25.3198 24.1666 23.7083V18.1521C20.6155 19.4879 14.8055 19.6367 12.4999 19.6367C10.1943 19.6367 4.38429 19.4908 0.833252 18.1521V23.7083ZM0.833252 14.9583C1.69804 15.6073 5.77263 16.72 12.4999 16.72C19.2272 16.72 23.3018 15.6073 24.1666 14.9583V7.22917C21.0239 8.80417 15.9999 9.125 12.4999 9.125C8.99992 9.125 3.97596 8.80417 0.833252 7.22917V14.9583Z" fill="#5DD62C"/>
</svg>
