<svg width="32" height="32" viewBox="0 0 32 32" fill="none" xmlns="http://www.w3.org/2000/svg">
<path d="M23.9136 20.7407C24.0355 20.5294 24.1112 20.2915 24.1112 20.0779V12.6605C24.1112 12.4468 24.0355 12.2089 23.9136 11.9982L16.3423 16.3692L23.9136 20.7407Z" fill="#00599C"/>
<path d="M17.0151 24.9514L23.438 21.2432C23.623 21.1364 23.7915 20.9518 23.9134 20.7406L16.3421 16.3691L8.77075 20.7406C8.89263 20.9518 9.06112 21.1364 9.24611 21.2432L15.6691 24.9514C16.0391 25.165 16.6451 25.165 17.0151 24.9514Z" fill="#004482"/>
<path d="M23.9135 11.9982C23.7916 11.7865 23.6231 11.6025 23.4381 11.4956L17.0152 7.78694C16.6452 7.5733 16.0392 7.5733 15.6692 7.78694L9.24623 11.4956C8.87623 11.7093 8.57324 12.2337 8.57324 12.661V20.0779C8.57324 20.2915 8.64899 20.5295 8.77086 20.7407L16.3422 16.3692L23.9135 11.9982Z" fill="#659AD2"/>
<path d="M16.3423 21.5486C13.4862 21.5486 11.1628 19.2252 11.1628 16.3692C11.1628 13.5131 13.4862 11.1897 16.3423 11.1897C18.185 11.1897 19.9039 12.1817 20.8274 13.7777L18.5861 15.0751C18.3579 14.6819 18.0307 14.3554 17.637 14.1281C17.2433 13.9008 16.7969 13.7807 16.3423 13.7797C15.6558 13.7806 14.9977 14.0537 14.5122 14.5391C14.0268 15.0245 13.7537 15.6827 13.7528 16.3692C13.7535 17.0558 14.0264 17.7142 14.5119 18.1998C14.9974 18.6855 15.6556 18.9587 16.3423 18.9596C16.7969 18.9586 17.2434 18.8384 17.6371 18.611C18.0308 18.3836 18.358 18.0569 18.5861 17.6637L20.8274 18.9606C20.3711 19.7462 19.7169 20.3986 18.93 20.8526C18.143 21.3066 17.2508 21.5469 16.3423 21.5486Z" fill="white"/>
<path d="M21.5216 16.0817H20.9452V15.5059H20.3698V16.0817H19.7944V16.6571H20.3698V17.2325H20.9452V16.6571H21.5211L21.5216 16.0817ZM23.6794 16.0817H23.104V15.5059H22.5281V16.0817H21.9527V16.6571H22.5281V17.2325H23.1035V16.6571H23.6789L23.6794 16.0817Z" fill="white"/>
</svg>
