<svg width="32" height="33" viewBox="0 0 32 33" fill="none" xmlns="http://www.w3.org/2000/svg">
<path d="M14.3131 4.83289H18.1636V22.4771C16.52 22.8144 14.847 22.9885 13.1691 22.9967C8.46699 22.9918 6.01978 20.8913 6.01978 16.8573C6.01978 12.9728 8.61557 10.4479 12.6389 10.4479C13.2032 10.4369 13.7664 10.5022 14.3131 10.6421V4.83289ZM14.3131 13.7108C13.8945 13.5728 13.4554 13.5071 13.0147 13.5166C11.0725 13.5166 9.94309 14.7043 9.94309 16.7854C9.94309 18.8121 11.0181 19.9308 12.9905 19.9308C13.4331 19.9307 13.8752 19.8983 14.3131 19.8337V13.7157V13.7108Z" fill="#44B78B"/>
<path d="M24.2815 10.7169V19.5541C24.2815 22.5966 24.0533 24.0591 23.3852 25.3206C22.7033 26.6032 21.5883 27.6023 20.2388 28.1397L16.667 26.4568C17.9646 26.0125 19.0514 25.1028 19.7173 23.9037C20.2669 22.8151 20.4408 21.5536 20.4408 18.2353V10.7169H24.2815Z" fill="#44B78B"/>
<path d="M24.2865 4.85229H20.437V8.76396H24.2865V4.85229Z" fill="#44B78B"/>
</svg>
