<svg width="30" height="29" viewBox="0 0 30 29" fill="none" xmlns="http://www.w3.org/2000/svg">
<path d="M20.4176 0H15.979V4.58333H20.4176V0Z" fill="#5DD62C"/>
<path d="M22.1929 4.58333H26.6315V2.75C26.6315 1.19167 25.4774 0 23.9683 0H22.1929V4.58333Z" fill="#5DD62C"/>
<path d="M14.2035 0H9.76489V4.58333H14.2035V0Z" fill="#5DD62C"/>
<path d="M8.87719 6.41667C8.34456 6.41667 7.98947 6.05 7.98947 5.5V0H2.66316C1.15403 0 0 1.19167 0 2.75V19.25C0 20.8083 1.15403 22 2.66316 22H23.9684C25.4775 22 26.6316 20.8083 26.6316 19.25V6.41667H8.87719ZM5.32632 4.58333H2.66316C2.13053 4.58333 1.77544 4.21667 1.77544 3.66667C1.77544 3.11667 2.13053 2.75 2.66316 2.75H5.32632C5.85895 2.75 6.21404 3.11667 6.21404 3.66667C6.21404 4.21667 5.85895 4.58333 5.32632 4.58333Z" fill="#5DD62C"/>
<path d="M21.5001 14.2917C16.898 14.2917 13.1667 13.3594 13.1667 12.2083C13.1667 11.0573 16.898 10.125 21.5001 10.125C26.1022 10.125 29.8334 11.0625 29.8334 12.2083C29.8334 13.3542 26.1022 14.2917 21.5001 14.2917ZM13.1667 26.7917C13.1667 27.9427 16.898 28.875 21.5001 28.875C26.1022 28.875 29.8334 27.9427 29.8334 26.7917V22.8229C27.297 23.7771 23.147 23.8833 21.5001 23.8833C19.8532 23.8833 15.7032 23.7792 13.1667 22.8229V26.7917ZM13.1667 20.5417C13.7845 21.0052 16.6949 21.8 21.5001 21.8C26.3053 21.8 29.2157 21.0052 29.8334 20.5417V15.0208C27.5886 16.1458 24.0001 16.375 21.5001 16.375C19.0001 16.375 15.4115 16.1458 13.1667 15.0208V20.5417Z" fill="#309D04"/>
</svg>
