<svg width="32" height="32" viewBox="0 0 32 32" fill="none" xmlns="http://www.w3.org/2000/svg">
<g clip-path="url(#clip0_156_365)">
<path d="M18.0765 11.4484L18.1448 11.494C18.9467 12.0235 19.5216 12.7498 19.8999 13.6273C19.9907 13.7635 19.9301 13.8392 19.7486 13.8846L19.4412 13.9632C18.7465 14.1422 18.1951 14.2927 17.5095 14.4717L17.1185 14.5736C16.9777 14.6084 16.9388 14.5937 16.789 14.4232L16.7679 14.399C16.5543 14.1569 16.3943 13.9952 16.1113 13.8509L16.0568 13.824C15.1036 13.355 14.1806 13.4912 13.3182 14.051C12.2893 14.7167 11.7598 15.7002 11.7749 16.9257C11.79 18.1362 12.6222 19.1348 13.8175 19.3012C14.8464 19.4374 15.7088 19.0742 16.3897 18.3026C16.5258 18.1362 16.6469 17.9546 16.7982 17.7428H13.878C13.5603 17.7428 13.4846 17.5461 13.5906 17.2889L13.643 17.1654C13.8375 16.713 14.1391 16.0627 14.335 15.6908L14.3777 15.6108C14.43 15.5201 14.5362 15.3976 14.7405 15.3976L19.6096 15.3975C19.8283 14.7047 20.1831 14.0501 20.6564 13.4306C21.7609 11.9781 23.0924 11.2216 24.8929 10.9039C26.4362 10.6315 27.8887 10.7828 29.205 11.6755C30.4003 12.4926 31.1417 13.5971 31.3384 15.0496C31.5956 17.0922 31.0055 18.7565 29.5984 20.1788C28.5998 21.1925 27.3742 21.828 25.9671 22.1154C25.5586 22.1911 25.1501 22.2062 24.7567 22.2516C23.3798 22.2213 22.124 21.828 21.0649 20.9201C20.32 20.2762 19.8069 19.4848 19.5519 18.5635C19.375 18.9208 19.1634 19.2631 18.9164 19.5887C17.827 21.0261 16.4048 21.9187 14.6043 22.1608C13.1215 22.3575 11.7447 22.07 10.5342 21.1622C9.41459 20.3149 8.77912 19.1953 8.61269 17.8033C8.41599 16.1541 8.90016 14.6713 9.89876 13.3701C10.973 11.963 12.3953 11.0703 14.1352 10.7526C15.5312 10.5001 16.8688 10.6558 18.0765 11.4484ZM25.2742 13.6166L25.2257 13.6273C23.8186 13.9451 22.9108 14.8378 22.5779 16.26C22.3056 17.4402 22.8805 18.6355 23.9699 19.1196C24.8021 19.4828 25.6343 19.4374 26.4362 19.0289C27.6315 18.4085 28.2821 17.4402 28.3577 16.139C28.3426 15.9423 28.3426 15.791 28.3123 15.6397C28.043 14.1586 26.6939 13.3136 25.2742 13.6166ZM7.38713 16.3811C7.44765 16.3811 7.47792 16.4264 7.47792 16.487L7.44765 16.8501C7.44765 16.9106 7.38713 16.956 7.34174 16.956L4.04334 16.9409C3.98282 16.9409 3.96769 16.8955 3.99795 16.8501L4.20977 16.4718C4.24003 16.4264 4.30055 16.3811 4.36108 16.3811H7.38713ZM7.72 14.9891C7.78052 14.9891 7.81078 15.0345 7.79565 15.0798L7.67461 15.443C7.65948 15.5035 7.59896 15.5338 7.53844 15.5338L0.38181 15.5489C0.321289 15.5489 0.306159 15.5186 0.336419 15.4732L0.654155 15.0647C0.684416 15.0193 0.760067 14.9891 0.820589 14.9891H7.72ZM8.50677 13.5971C8.5673 13.5971 8.58243 13.6425 8.55217 13.6879L8.29495 14.0812C8.26469 14.1266 8.18904 14.172 8.14365 14.172L2.66648 14.1569C2.60596 14.1569 2.59083 14.1266 2.62109 14.0812L2.93883 13.6727C2.96909 13.6273 3.04474 13.5971 3.10526 13.5971H8.50677Z" fill="#00ACD7"/>
</g>
<defs>
<clipPath id="clip0_156_365">
<rect width="31.0758" height="31.0758" fill="white" transform="translate(0.321289 0.930298)"/>
</clipPath>
</defs>
</svg>
