<svg width="32" height="32" viewBox="0 0 32 32" fill="none" xmlns="http://www.w3.org/2000/svg">
<path d="M18.8621 19.1296C19.1634 19.7403 19.6309 20.2537 20.2108 20.6106C20.7908 20.9676 21.4596 21.1537 22.1406 21.1476C23.5177 21.1476 24.3975 20.4591 24.3975 19.5083C24.3975 18.3692 23.4934 17.9652 21.9784 17.3019L21.1472 16.9455C18.7495 15.9239 17.1559 14.644 17.1559 11.9385C17.1559 9.44561 19.0554 7.54902 22.0231 7.54902C22.9863 7.47912 23.9488 7.69472 24.7901 8.16885C25.6314 8.64297 26.3143 9.35459 26.7534 10.2147L24.1654 11.8763C23.9959 11.4501 23.7008 11.0855 23.3192 10.8311C22.9376 10.5766 22.4876 10.4443 22.0289 10.4517C21.829 10.4316 21.6271 10.4533 21.4361 10.5156C21.2451 10.5778 21.0691 10.6792 20.9195 10.8133C20.7698 10.9473 20.6497 11.1111 20.5669 11.2941C20.484 11.4771 20.4402 11.6754 20.4382 11.8763C20.4382 12.8737 21.0559 13.2767 22.4776 13.8943L23.3089 14.2497C26.1329 15.4607 27.7265 16.695 27.7265 19.4705C27.7265 22.4625 25.3764 24.1017 22.2193 24.1017C20.9895 24.1799 19.7634 23.9006 18.6888 23.2975C17.6143 22.6944 16.7372 21.7933 16.1634 20.7028L18.8621 19.1296ZM7.12326 19.4209C7.64572 20.3474 8.12059 21.1301 9.25972 21.1301C10.3513 21.1301 11.0407 20.7028 11.0407 19.0422V7.74324H14.3639V19.0888C14.3639 22.5295 12.3459 24.0959 9.4015 24.0959C8.36142 24.1522 7.32867 23.8923 6.4391 23.3505C5.54954 22.8086 4.84484 22.0102 4.41772 21.0602L7.12326 19.4209Z" fill="#F5DE19"/>
</svg>
