<svg width="31" height="31" viewBox="0 0 31 31" fill="none" xmlns="http://www.w3.org/2000/svg">
<mask id="mask0_156_450" style="mask-type:luminance" maskUnits="userSpaceOnUse" x="0" y="0" width="31" height="31">
<path d="M31 0H0V31H31V0Z" fill="white"/>
</mask>
<g mask="url(#mask0_156_450)">
<path d="M14.4849 0.00834344C14.4182 0.014404 14.206 0.0356162 14.0151 0.0507677C9.61212 0.447737 5.48788 2.82349 2.87575 6.47501C1.42121 8.50532 0.49091 10.8083 0.139394 13.2477C0.0151515 14.0993 0 14.3508 0 15.5053C0 16.6599 0.0151515 16.9114 0.139394 17.7629C0.981818 23.5842 5.12425 28.4751 10.7424 30.2871C11.7485 30.6113 12.8091 30.8326 14.0151 30.9659C14.4849 31.0174 16.5151 31.0174 16.9849 30.9659C19.0667 30.7356 20.8303 30.2205 22.5697 29.3326C22.8364 29.1962 22.8878 29.1599 22.8515 29.1295C22.8272 29.1113 21.691 27.5872 20.3272 25.7447L17.8485 22.3962L14.7424 17.7993C13.0333 15.272 11.6273 13.2054 11.6152 13.2054C11.603 13.2023 11.5909 15.2448 11.5848 17.7386C11.5758 22.1053 11.5727 22.2811 11.5182 22.3841C11.4394 22.5326 11.3788 22.5932 11.2515 22.6598C11.1545 22.7084 11.0697 22.7174 10.6121 22.7174H10.0879L9.94848 22.6296C9.85757 22.572 9.79091 22.4962 9.74546 22.4084L9.68182 22.272L9.68787 16.1962L9.69697 10.1174L9.79091 9.99926C9.8394 9.93562 9.94242 9.8538 10.0152 9.81441C10.1394 9.7538 10.1879 9.74774 10.7121 9.74774C11.3303 9.74774 11.4333 9.77198 11.5939 9.94773C11.6394 9.99622 13.3212 12.5296 15.3334 15.5811C17.3454 18.6326 20.0969 22.7992 21.4485 24.8447L23.9031 28.5629L24.0273 28.4811C25.1273 27.7659 26.291 26.7477 27.2121 25.6871C29.1727 23.4356 30.4363 20.6902 30.8606 17.7629C30.9849 16.9114 31 16.6599 31 15.5053C31 14.3508 30.9849 14.0993 30.8606 13.2477C30.0182 7.42653 25.8757 2.53562 20.2576 0.723495C19.2666 0.402283 18.2121 0.181071 17.0304 0.0477374C16.7394 0.0174344 14.7364 -0.015899 14.4849 0.00834344ZM20.8303 9.3841C20.9758 9.45683 21.0939 9.59622 21.1363 9.74167C21.1606 9.82047 21.1667 11.5053 21.1606 15.3022L21.1516 20.7508L20.1909 19.278L19.2272 17.8054V13.8447C19.2272 11.2841 19.2394 9.84471 19.2576 9.77501C19.306 9.60531 19.4121 9.47199 19.5575 9.39319C19.6818 9.32955 19.7272 9.3235 20.2031 9.3235C20.6516 9.3235 20.7303 9.32955 20.8303 9.3841Z" fill="black"/>
</g>
</svg>
