<svg width="32" height="32" viewBox="0 0 32 32" fill="none" xmlns="http://www.w3.org/2000/svg">
<g clip-path="url(#clip0_156_449)">
<mask id="mask0_156_449" style="mask-type:luminance" maskUnits="userSpaceOnUse" x="0" y="0" width="26" height="25">
<path d="M25.3213 0H0.321289V25H25.3213V0Z" fill="white"/>
</mask>
<g mask="url(#mask0_156_449)">
<path d="M12.0026 0.00672858C11.9489 0.0116161 11.7777 0.0287227 11.6238 0.0409417C8.073 0.361078 4.747 2.27701 2.64044 5.22178C1.46742 6.85913 0.717184 8.71641 0.433704 10.6836C0.333508 11.3704 0.321289 11.5732 0.321289 12.5043C0.321289 13.4354 0.333508 13.6382 0.433704 14.3249C1.11308 19.0195 4.45375 22.9638 8.98454 24.4251C9.79587 24.6866 10.6512 24.865 11.6238 24.9725C12.0026 25.0141 13.6399 25.0141 14.0188 24.9725C15.6976 24.7868 17.1199 24.3714 18.5226 23.6553C18.7377 23.5453 18.7792 23.516 18.7499 23.4916C18.7304 23.4769 17.814 22.2477 16.7142 20.7619L14.7152 18.0615L12.2104 14.3543C10.832 12.3161 9.69812 10.6495 9.68835 10.6495C9.67857 10.647 9.6688 12.2942 9.6639 14.3053C9.65658 17.8269 9.65413 17.9686 9.61014 18.0517C9.54661 18.1715 9.49773 18.2203 9.39509 18.2741C9.31689 18.3132 9.24847 18.3205 8.87946 18.3205H8.45667L8.34426 18.2497C8.27095 18.2032 8.21718 18.1421 8.18053 18.0713L8.12921 17.9613L8.13409 13.0615L8.14142 8.15922L8.21718 8.06392C8.25629 8.01259 8.33937 7.94662 8.39803 7.91484C8.49822 7.86597 8.53732 7.86108 8.96009 7.86108C9.45863 7.86108 9.54172 7.88063 9.67124 8.02236C9.70789 8.06147 11.0642 10.1045 12.6869 12.5654C14.3095 15.0263 16.5285 18.3865 17.6185 20.036L19.598 23.0346L19.6982 22.9686C20.5852 22.3919 21.5237 21.5707 22.2665 20.7154C23.8476 18.8997 24.8667 16.6856 25.2089 14.3249C25.3091 13.6382 25.3213 13.4354 25.3213 12.5043C25.3213 11.5732 25.3091 11.3704 25.2089 10.6836C24.5295 5.98914 21.1888 2.04485 16.6581 0.583464C15.8589 0.324422 15.0085 0.146025 14.0555 0.0384979C13.8208 0.01406 12.2055 -0.0128218 12.0026 0.00672858ZM17.1199 7.56782C17.2372 7.62648 17.3325 7.73889 17.3667 7.85619C17.3863 7.91973 17.3912 9.27848 17.3863 12.3405L17.379 16.7345L16.6043 15.5468L15.8271 14.3592V11.1651C15.8271 9.10008 15.8369 7.93928 15.8516 7.88307C15.8907 7.74622 15.9762 7.6387 16.0935 7.57516C16.1937 7.52383 16.2304 7.51895 16.6141 7.51895C16.9758 7.51895 17.0393 7.52383 17.1199 7.56782Z" fill="black"/>
</g>
</g>
<defs>
<clipPath id="clip0_156_449">
<rect width="31.0758" height="31.0758" fill="white" transform="translate(0.321289)"/>
</clipPath>
</defs>
</svg>
