<svg width="30" height="32" viewBox="0 0 30 32" fill="none" xmlns="http://www.w3.org/2000/svg">
<path d="M25.4986 12.5644V11.5075C25.4986 5.70434 20.7982 1 15 1C9.20176 1 4.50135 5.70434 4.50135 11.5075V12.5644C4.50135 13.8328 4.12623 15.0727 3.42324 16.1281L1.70056 18.7142C0.127055 21.0764 1.3283 24.2873 4.065 25.0343C11.2243 26.9885 18.7758 26.9885 25.9349 25.0343C28.6718 24.2873 29.873 21.0764 28.2994 18.7142L26.5767 16.1281C25.8738 15.0727 25.4986 13.8328 25.4986 12.5644Z" stroke="#B3B3B3" stroke-width="1.5"/>
<path d="M8 26.5C9.01894 29.1217 11.7683 31 15 31C18.2317 31 20.9811 29.1217 22 26.5" stroke="#B3B3B3" stroke-width="1.5" stroke-linecap="round"/>
</svg>
