<svg width="32" height="32" viewBox="0 0 32 32" fill="none" xmlns="http://www.w3.org/2000/svg">
<path d="M8.25173 14.0154C8.55118 13.9778 8.85511 13.9998 9.14598 14.0803C9.43684 14.1608 9.70887 14.2982 9.94633 14.4845C10.0996 14.7205 10.1973 14.9882 10.2321 15.2674C10.2669 15.5466 10.2379 15.8301 10.1474 16.0965C10.0679 16.7524 9.75072 17.3563 9.25587 17.794C8.65911 18.1784 7.95368 18.3587 7.24566 18.3077H5.88609L6.72125 14.0241L8.25173 14.0154ZM2.81348 22.6448H5.04705L5.57631 19.9256H7.48649C8.19022 19.9436 8.8925 19.8528 9.56857 19.6566C10.1238 19.4733 10.6313 19.1688 11.0544 18.7651C11.786 18.1072 12.2791 17.2255 12.4567 16.2577C12.5968 15.776 12.6215 15.2681 12.5287 14.7751C12.4359 14.2821 12.2282 13.8179 11.9226 13.4201C11.554 13.0549 11.1102 12.7745 10.6221 12.5986C10.134 12.4226 9.6134 12.3553 9.09661 12.4014H4.81107L2.81348 22.6448Z" fill="#8993BE"/>
<path d="M14.095 9.67639H16.3121L15.775 12.3955H17.7474C18.6535 12.3006 19.5639 12.5309 20.316 13.0452C20.5648 13.3281 20.7349 13.6714 20.8092 14.0408C20.8835 14.4101 20.8595 14.7925 20.7394 15.1496L19.8129 19.9168H17.5697L18.4514 15.3846C18.5128 15.2117 18.5347 15.0272 18.5155 14.8448C18.4964 14.6623 18.4366 14.4864 18.3407 14.33C18.0193 14.0993 17.6219 14 17.2298 14.0522H15.4594L14.3184 19.9217H12.0964L14.095 9.67639Z" fill="#8993BE"/>
<path d="M25.6726 14.0153C25.9721 13.9777 26.276 13.9998 26.5669 14.0803C26.8577 14.1608 27.1298 14.2981 27.3672 14.4844C27.5205 14.7204 27.6182 14.9881 27.653 15.2673C27.6878 15.5465 27.6588 15.83 27.5683 16.0964C27.4888 16.7523 27.1716 17.3563 26.6768 17.794C26.0789 18.1792 25.372 18.3595 24.6627 18.3077H23.3041L24.1373 14.0192L25.6726 14.0153ZM20.2344 22.6447H22.4679L22.9972 19.9256H24.9084C25.6134 19.9439 26.317 19.8532 26.9943 19.6566C27.5496 19.4733 28.0571 19.1687 28.4801 18.7651C29.21 18.1065 29.7013 17.2248 29.8776 16.2577C30.0177 15.776 30.0424 15.268 29.9496 14.775C29.8568 14.282 29.6491 13.8178 29.3435 13.42C28.9748 13.0555 28.531 12.7757 28.0431 12.6003C27.5552 12.4249 27.0349 12.358 26.5185 12.4043H22.2261L20.2344 22.6447Z" fill="#8993BE"/>
</svg>
