<svg width="20" height="20" viewBox="0 0 20 20" fill="none" xmlns="http://www.w3.org/2000/svg">
<path d="M15.5775 2.43152L13.5775 1.38197C11.8219 0.46066 10.9441 0 9.99978 0C9.05548 0 8.17768 0.46066 6.42207 1.38197L4.42207 2.43152C2.64833 3.36234 1.60568 3.9095 0.959473 4.64132L9.99978 9.1615L19.0401 4.64132C18.3939 3.9095 17.3513 3.36234 15.5775 2.43152Z" fill="#B3B3B3"/>
<path d="M19.7484 5.96436L10.75 10.4635V19.904C11.4679 19.7252 12.2848 19.2965 13.5777 18.618L15.5777 17.5685C17.7294 16.4393 18.8052 15.8748 19.4026 14.8603C20 13.8458 20 12.5833 20 10.0585V9.9415C20 8.0489 20 6.86559 19.7484 5.96436Z" fill="#B3B3B3"/>
<path d="M9.25 19.904V10.4635L0.25164 5.96436C8.9407e-08 6.86559 0 8.04891 0 9.94151V10.0585C0 12.5833 -5.96046e-08 13.8458 0.5974 14.8603C1.19479 15.8748 2.27063 16.4393 4.42229 17.5685L6.42229 18.618C7.71524 19.2965 8.5321 19.7252 9.25 19.904Z" fill="#B3B3B3"/>
</svg>
