<svg width="32" height="32" viewBox="0 0 32 32" fill="none" xmlns="http://www.w3.org/2000/svg">
<path d="M16.2456 8.43555C12.3009 8.43555 12.5471 10.1462 12.5471 10.1462L12.5519 11.9185H16.316V12.4501H11.0559C11.0559 12.4501 8.53247 12.1637 8.53247 16.1443C8.53247 20.1239 10.7355 19.9831 10.7355 19.9831H12.0503V18.136C12.0503 18.136 11.9795 15.9331 14.2184 15.9331H17.9513C17.9513 15.9331 20.049 15.967 20.049 13.9059V10.4977C20.049 10.4977 20.3675 8.43555 16.2456 8.43555ZM14.1698 9.62711C14.5442 9.62711 14.8472 9.9301 14.8472 10.3045C14.8472 10.6788 14.5442 10.9818 14.1698 10.9818C14.0808 10.9819 13.9927 10.9645 13.9104 10.9305C13.8282 10.8965 13.7535 10.8466 13.6906 10.7837C13.6276 10.7208 13.5777 10.6461 13.5438 10.5638C13.5098 10.4816 13.4923 10.3935 13.4925 10.3045C13.4925 9.9301 13.7954 9.62711 14.1698 9.62711Z" fill="url(#paint0_linear_156_421)"/>
<path d="M16.3574 23.8923C20.3021 23.8923 20.0559 22.1817 20.0559 22.1817L20.0511 20.4094H16.287V19.8777H21.5466C21.5466 19.8777 24.0705 20.1642 24.0705 16.1841C24.0705 12.2039 21.8676 12.3452 21.8676 12.3452H20.5527V14.1918C20.5527 14.1918 20.6235 16.3948 18.3846 16.3948H14.6517C14.6517 16.3948 12.554 16.3608 12.554 18.422V21.8301C12.554 21.8301 12.2355 23.8923 16.3574 23.8923ZM18.4332 22.7007C18.3442 22.7009 18.2561 22.6834 18.1738 22.6494C18.0916 22.6154 18.0169 22.5656 17.9539 22.5026C17.891 22.4397 17.8411 22.365 17.8071 22.2827C17.7731 22.2005 17.7557 22.1124 17.7558 22.0234C17.7558 21.6495 18.0588 21.3465 18.4332 21.3465C18.8076 21.3465 19.1105 21.649 19.1105 22.0234C19.1105 22.3982 18.8076 22.7007 18.4332 22.7007Z" fill="url(#paint1_linear_156_421)"/>
<defs>
<linearGradient id="paint0_linear_156_421" x1="10.0256" y1="9.78637" x2="17.7086" y2="17.4951" gradientUnits="userSpaceOnUse">
<stop stop-color="#387EB8"/>
<stop offset="1" stop-color="#366994"/>
</linearGradient>
<linearGradient id="paint1_linear_156_421" x1="14.7522" y1="14.6905" x2="23.0038" y2="22.5959" gradientUnits="userSpaceOnUse">
<stop stop-color="#FFE052"/>
<stop offset="1" stop-color="#FFC331"/>
</linearGradient>
</defs>
</svg>
