<svg width="30" height="30" viewBox="0 0 30 30" fill="none" xmlns="http://www.w3.org/2000/svg">
<path d="M14.892 0C7.27584 0 7.75115 3.32011 7.75115 3.32011L7.76052 6.7599H15.0279V7.79183H4.87212C4.87212 7.79183 0 7.23581 0 14.9617C0 22.6857 4.25338 22.4124 4.25338 22.4124H6.7921V18.8274C6.7921 18.8274 6.65522 14.5517 10.978 14.5517H18.1854C18.1854 14.5517 22.2353 14.6177 22.2353 10.6172V4.00241C22.2353 4.00241 22.8503 0 14.892 0ZM10.8842 2.31267C11.607 2.31267 12.192 2.90073 12.192 3.62733C12.192 4.35393 11.607 4.94199 10.8842 4.94199C10.7124 4.94224 10.5422 4.9084 10.3835 4.84242C10.2247 4.77644 10.0804 4.67961 9.95893 4.55749C9.83744 4.43536 9.74112 4.29033 9.67548 4.13072C9.60985 3.97111 9.57619 3.80004 9.57644 3.62733C9.57644 2.90073 10.1614 2.31267 10.8842 2.31267Z" fill="url(#paint0_linear_156_422)"/>
<path d="M15.108 29.9995C22.7242 29.9995 22.2489 26.6794 22.2489 26.6794L22.2395 23.2396H14.9721V22.2077H25.127C25.127 22.2077 30 22.7637 30 15.0388C30 7.31388 25.7466 7.58812 25.7466 7.58812H23.2079V11.1721C23.2079 11.1721 23.3448 15.4478 19.022 15.4478H11.8146C11.8146 15.4478 7.76468 15.3818 7.76468 19.3824V25.9971C7.76468 25.9971 7.14969 29.9995 15.108 29.9995ZM19.1158 27.6869C18.944 27.6871 18.7738 27.6533 18.615 27.5873C18.4562 27.5213 18.312 27.4245 18.1905 27.3024C18.069 27.1802 17.9727 27.0352 17.907 26.8756C17.8414 26.716 17.8077 26.5449 17.808 26.3722C17.808 25.6465 18.393 25.0585 19.1158 25.0585C19.8386 25.0585 20.4236 25.6456 20.4236 26.3722C20.4236 27.0997 19.8386 27.6869 19.1158 27.6869Z" fill="url(#paint1_linear_156_422)"/>
<defs>
<linearGradient id="paint0_linear_156_422" x1="2.88277" y1="2.62178" x2="17.7946" y2="17.5054" gradientUnits="userSpaceOnUse">
<stop stop-color="#387EB8"/>
<stop offset="1" stop-color="#366994"/>
</linearGradient>
<linearGradient id="paint1_linear_156_422" x1="12.0087" y1="12.14" x2="28.0202" y2="27.3996" gradientUnits="userSpaceOnUse">
<stop stop-color="#FFE052"/>
<stop offset="1" stop-color="#FFC331"/>
</linearGradient>
</defs>
</svg>
