<svg width="32" height="32" viewBox="0 0 32 32" fill="none" xmlns="http://www.w3.org/2000/svg">
<g clip-path="url(#clip0_156_369)">
<path d="M25.5505 11.0321C25.2281 10.9211 24.8941 10.8162 24.5501 10.7169C24.6067 10.4862 24.6586 10.2584 24.7047 10.0346C25.462 6.35876 24.9668 3.3975 23.2761 2.42253C21.655 1.48766 19.0037 2.46241 16.3261 4.79269C16.0686 5.01677 15.8104 5.25402 15.5523 5.50265C15.3803 5.33815 15.2086 5.17918 15.0373 5.02712C12.2311 2.53542 9.41822 1.48539 7.7292 2.46318C6.10959 3.40076 5.62996 6.18463 6.3116 9.66822C6.37742 10.0047 6.45436 10.3483 6.54137 10.6977C6.14328 10.8107 5.75895 10.9312 5.39122 11.0593C2.10117 12.2064 0 14.0041 0 15.8688C0 17.7947 2.25561 19.7264 5.68245 20.8977C5.95288 20.9901 6.23349 21.0775 6.52268 21.1605C6.42881 21.5383 6.34717 21.9086 6.27863 22.2697C5.62869 25.6929 6.13625 28.411 7.75154 29.3426C9.41999 30.3048 12.2201 29.3158 14.9467 26.9324C15.1622 26.744 15.3785 26.5442 15.5952 26.3348C15.876 26.6052 16.1564 26.8612 16.4353 27.1012C19.0763 29.3739 21.6848 30.2917 23.2986 29.3574C24.9654 28.3925 25.5071 25.4726 24.8038 21.9201C24.7501 21.6488 24.6876 21.3716 24.6174 21.0895C24.8141 21.0314 25.0071 20.9713 25.1953 20.9089C28.7579 19.7286 31.0758 17.8204 31.0758 15.8688C31.0758 13.9973 28.9068 12.1875 25.5505 11.0321ZM24.7778 19.6488C24.6079 19.7051 24.4335 19.7595 24.2559 19.8122C23.8626 18.5671 23.3318 17.2431 22.6822 15.8753C23.3021 14.54 23.8124 13.233 24.1946 11.996C24.5125 12.0879 24.8211 12.185 25.1184 12.2874C27.9941 13.2773 29.7482 14.741 29.7482 15.8688C29.7482 17.0701 27.8538 18.6296 24.7778 19.6488ZM23.5015 22.1779C23.8125 23.7488 23.8569 25.169 23.6509 26.2793C23.4658 27.277 23.0936 27.9421 22.6334 28.2085C21.6541 28.7754 19.5597 28.0385 17.3011 26.0949C17.0422 25.8721 16.7813 25.6342 16.5197 25.3824C17.3953 24.4247 18.2705 23.3114 19.1246 22.075C20.6269 21.9417 22.0462 21.7237 23.3333 21.4262C23.3967 21.6819 23.453 21.9327 23.5015 22.1779ZM10.5944 28.1105C9.6376 28.4485 8.87553 28.4581 8.41487 28.1925C7.43465 27.6272 7.02715 25.4448 7.583 22.5173C7.64667 22.1821 7.72245 21.8377 7.80979 21.4856C9.0828 21.7671 10.4917 21.9697 11.9976 22.0918C12.8575 23.3017 13.7579 24.4138 14.6652 25.3875C14.467 25.5789 14.2695 25.7611 14.0732 25.9328C12.8675 26.9867 11.6592 27.7345 10.5944 28.1105ZM6.1118 19.6415C4.59652 19.1236 3.34514 18.4504 2.48738 17.7159C1.71663 17.0558 1.32749 16.4005 1.32749 15.8688C1.32749 14.7372 3.01453 13.2939 5.82821 12.3129C6.16961 12.1939 6.52699 12.0817 6.89788 11.9763C7.28674 13.2413 7.79685 14.5638 8.41244 15.9011C7.78888 17.2583 7.27152 18.6019 6.87885 19.8816C6.61444 19.8056 6.35828 19.7257 6.1118 19.6415ZM7.61442 9.41327C7.03041 6.42862 7.41827 4.1771 8.3943 3.61212C9.43393 3.01024 11.7329 3.86839 14.1558 6.01984C14.3107 6.15736 14.4662 6.30128 14.6221 6.45019C13.7193 7.41969 12.8271 8.52343 11.9749 9.72619C10.5133 9.86165 9.11432 10.0793 7.82804 10.3707C7.74717 10.0454 7.67554 9.72575 7.61442 9.41327ZM21.0191 12.7232C20.7116 12.1921 20.3959 11.6735 20.0741 11.1691C21.0656 11.2945 22.0156 11.4608 22.9077 11.6645C22.6399 12.5228 22.306 13.4203 21.9131 14.3404C21.6312 13.8052 21.3331 13.2656 21.0191 12.7232ZM15.5527 7.39894C16.165 8.06233 16.7782 8.80299 17.3814 9.6066C16.7736 9.57789 16.1583 9.56295 15.5379 9.56295C14.9233 9.56295 14.3126 9.57756 13.7085 9.60577C14.3123 8.80963 14.9308 8.06996 15.5527 7.39894ZM10.0513 12.7324C9.74413 13.265 9.45152 13.8017 9.17406 14.3394C8.78747 13.4225 8.45675 12.5209 8.18659 11.6504C9.07323 11.452 10.0187 11.2898 11.0039 11.1668C10.6776 11.6759 10.3593 12.1984 10.0513 12.7324ZM11.0323 20.6655C10.0144 20.5519 9.0547 20.3981 8.16828 20.2051C8.44275 19.319 8.78078 18.3982 9.17556 17.4616C9.45373 17.9989 9.74751 18.5358 10.0566 19.0696C10.3713 19.6134 10.6975 20.146 11.0323 20.6655ZM15.5894 24.4322C14.9602 23.7534 14.3326 23.0024 13.7197 22.1947C14.3147 22.218 14.9213 22.23 15.5379 22.23C16.1713 22.23 16.7974 22.2157 17.4138 22.1883C16.8086 23.0106 16.1976 23.7627 15.5894 24.4322ZM21.9258 17.4139C22.3411 18.3606 22.6913 19.2766 22.9693 20.1476C22.0682 20.3531 21.0954 20.5187 20.0705 20.6417C20.393 20.1305 20.7115 19.603 21.0244 19.0604C21.341 18.5115 21.6416 17.9617 21.9258 17.4139ZM19.8745 18.3972C19.3887 19.2395 18.89 20.0435 18.3837 20.8025C17.4615 20.8685 16.5089 20.9024 15.5379 20.9024C14.5708 20.9024 13.6301 20.8724 12.7243 20.8136C12.1976 20.0447 11.6881 19.2382 11.2054 18.4045C10.724 17.573 10.281 16.7345 9.87955 15.9007C10.2809 15.0649 10.7228 14.2255 11.2014 13.3955L11.2013 13.3956C11.6812 12.5634 12.1863 11.7609 12.7082 10.9968C13.6324 10.927 14.5801 10.8905 15.5378 10.8905C16.4999 10.8905 17.4489 10.9272 18.3728 10.9977C18.8867 11.7562 19.3883 12.5561 19.8701 13.3884C20.3574 14.2301 20.805 15.064 21.2098 15.8818C20.8062 16.7137 20.3596 17.5559 19.8745 18.3972ZM22.613 3.57262C23.6537 4.17273 24.0583 6.59296 23.4045 9.76662C23.3628 9.96913 23.3159 10.1754 23.2649 10.3844C21.9756 10.0869 20.5756 9.86558 19.1098 9.72807C18.2559 8.51209 17.3711 7.40663 16.4829 6.44958C16.7217 6.21986 16.9601 6.00082 17.1976 5.79411C19.4918 3.79753 21.6361 3.00925 22.613 3.57262ZM15.5379 13.0938C17.0704 13.0938 18.3128 14.3362 18.3128 15.8688C18.3128 17.4013 17.0704 18.6438 15.5379 18.6438C14.0053 18.6438 12.7629 17.4013 12.7629 15.8688C12.7629 14.3362 14.0053 13.0938 15.5379 13.0938Z" fill="#00D8FF"/>
</g>
<defs>
<clipPath id="clip0_156_369">
<rect width="31.0758" height="31.0758" fill="white" transform="translate(0 0.371216)"/>
</clipPath>
</defs>
</svg>
