<svg width="25" height="25" viewBox="0 0 25 25" fill="none" xmlns="http://www.w3.org/2000/svg">
<path d="M20.3984 13.7281C19.7114 13.729 19.0336 13.886 18.4163 14.1874C18.2231 13.8667 18.0738 13.5214 17.9726 13.1609C17.9144 12.8783 17.901 12.5883 17.9327 12.3015C17.9995 11.9859 18.0861 11.6749 18.1921 11.3702C18.1882 11.3304 18.1445 11.1421 17.7046 11.1359C17.2648 11.1296 16.8859 11.2195 16.8452 11.3359C16.7688 11.5485 16.7075 11.7662 16.6616 11.9874C16.2976 12.8855 15.8495 13.7471 15.3234 14.5609C15.0286 14.0776 14.9073 13.5083 14.9796 12.9468C15.0464 12.6312 15.133 12.3202 15.239 12.0156C15.2351 11.9757 15.1913 11.7874 14.7515 11.7812C14.3116 11.7749 13.9327 11.8648 13.8921 11.9812C13.8515 12.0976 13.7999 12.3718 13.7085 12.6327C13.6171 12.8937 12.5499 15.2781 12.2702 15.8929C12.1265 16.2054 12.0023 16.4601 11.9148 16.632C11.9106 16.6431 11.9054 16.6539 11.8991 16.664C11.821 16.8117 11.7796 16.8921 11.7796 16.8921V16.896C11.7195 17.0038 11.6554 17.1038 11.6234 17.1038C11.5675 16.8806 11.5702 16.6468 11.6312 16.4249C11.7874 15.5976 12.1702 14.3117 12.1663 14.2671C12.1663 14.2429 12.2382 14.0195 11.9187 13.9038C11.8446 13.8686 11.7613 13.8572 11.6805 13.8711C11.5996 13.8851 11.5251 13.9239 11.4671 13.982C11.439 13.982 11.4195 14.0499 11.4195 14.0499C11.4195 14.0499 11.7671 12.6038 10.7562 12.6038C10.3625 12.683 9.98863 12.8401 9.65657 13.0659C9.3245 13.2918 9.04095 13.5817 8.82258 13.9187C8.55071 14.0663 7.9718 14.382 7.35227 14.7218C7.1179 14.8538 6.87258 14.9859 6.64524 15.1124C6.62961 15.0968 6.61321 15.0765 6.59758 15.0609C5.36711 13.7499 3.1054 12.8249 3.20305 11.071C3.23899 10.432 3.45852 8.75384 7.54602 6.71556C10.9101 5.05775 13.5874 5.51712 14.0507 6.53587C14.714 7.99056 12.6163 10.6913 9.14055 11.0827C8.75603 11.1608 8.35888 11.1513 7.97849 11.0552C7.59809 10.9591 7.24417 10.7786 6.9429 10.5273C6.7593 10.3273 6.73118 10.3156 6.66321 10.3554C6.55149 10.4156 6.62336 10.5952 6.66321 10.6992C6.7958 10.9391 6.97515 11.1501 7.19065 11.3195C7.40615 11.489 7.65344 11.6136 7.9179 11.6859C9.28526 11.9814 10.7109 11.8401 11.9937 11.282C14.1031 10.4671 15.7437 8.2015 15.2624 6.30384C14.7788 4.37806 11.5827 3.7429 8.55774 4.81947C6.66301 5.45702 4.91229 6.46126 3.4054 7.77493C1.73899 9.33353 1.47571 10.6874 1.58352 11.2554C1.97415 13.2695 4.74836 14.5796 5.85852 15.5523C5.80227 15.5843 5.75071 15.6124 5.70696 15.6359C5.15149 15.9117 3.0343 17.0187 2.50383 18.189C1.90461 19.5171 2.59993 20.4663 3.0593 20.5945C3.75149 20.7602 4.47815 20.7056 5.13783 20.4383C5.7975 20.1711 6.35727 19.7046 6.73899 19.1038C7.06404 18.6056 7.26384 18.0361 7.32138 17.444C7.37892 16.8519 7.29249 16.2546 7.06946 15.7031C7.06569 15.6941 7.0604 15.6859 7.05383 15.6788L7.48899 15.4234C7.77258 15.2554 8.05227 15.0999 8.29211 14.9718C8.12947 15.4409 8.034 15.9307 8.00852 16.4265C7.9533 17.1865 8.18588 17.9394 8.66008 18.5359C8.73224 18.598 8.81601 18.6452 8.90653 18.6747C8.99705 18.7042 9.09253 18.7154 9.18743 18.7077C9.65618 18.7077 9.87102 18.3171 10.1062 17.8531C10.3937 17.2859 10.6531 16.6265 10.6531 16.6265C10.6531 16.6265 10.3296 18.4085 11.2085 18.4085C11.5281 18.4085 11.8515 17.9929 11.996 17.7835V17.7874C11.996 17.7874 12.0038 17.7757 12.0202 17.7476L12.0718 17.664V17.6562C12.1999 17.4327 12.4874 16.9249 12.9148 16.082C13.4663 14.9952 13.9976 13.6367 13.9976 13.6367C14.0488 13.9352 14.1195 14.2301 14.2093 14.5195C14.338 14.8702 14.4901 15.2119 14.6648 15.5421C14.5366 15.7218 14.457 15.8218 14.457 15.8218L14.4609 15.8257C14.357 15.9617 14.2452 16.1093 14.121 16.2531C13.7514 16.6594 13.4085 17.0892 13.0945 17.5398C13.0478 17.6155 13.0317 17.7061 13.0496 17.7932C13.0675 17.8803 13.1179 17.9573 13.1906 18.0085C13.355 18.0941 13.5425 18.125 13.7257 18.0968C14.0018 18.0812 14.2734 18.0192 14.5288 17.9132C14.7757 17.8263 15.0086 17.704 15.2202 17.5499C15.4384 17.3988 15.614 17.1941 15.7301 16.9555C15.8463 16.7169 15.8991 16.4524 15.8835 16.1874C15.859 15.8537 15.7737 15.5273 15.632 15.2242C15.6718 15.1679 15.7101 15.1124 15.7476 15.0562C16.1917 14.3932 16.5921 13.7019 16.946 12.9867C16.9973 13.2852 17.068 13.5801 17.1577 13.8695C17.2639 14.1726 17.3945 14.4665 17.5484 14.7484C17.0374 15.1415 16.6349 15.6583 16.3788 16.2499C16.1273 16.9773 16.3226 17.3046 16.6913 17.3804C16.8931 17.3943 17.0949 17.353 17.2749 17.2609C17.5397 17.1739 17.7891 17.0457 18.014 16.8812C18.2511 16.7412 18.4498 16.5445 18.592 16.3087C18.7342 16.0729 18.8156 15.8055 18.8288 15.5304C18.8111 15.2558 18.7491 14.986 18.6452 14.7312C19.3195 14.4678 20.0506 14.3838 20.7671 14.4874C22.6687 14.7109 23.0445 15.8976 22.9726 16.3976C22.9389 16.5748 22.8676 16.7428 22.7636 16.8903C22.6595 17.0377 22.5252 17.1611 22.3695 17.2523C22.2374 17.3359 22.1937 17.364 22.2054 17.4242C22.221 17.5124 22.2835 17.5077 22.3968 17.4921C22.6834 17.403 22.9363 17.2292 23.122 16.9935C23.3078 16.7578 23.4178 16.4713 23.4374 16.1718C23.4976 14.9999 22.3788 13.7148 20.4007 13.7265L20.3984 13.7281ZM5.72649 18.6718C5.09524 19.3593 4.21633 19.6187 3.83665 19.3992C3.42883 19.1648 3.58899 18.1492 4.36399 17.421C4.82372 17.0072 5.32061 16.6366 5.84836 16.314C5.94055 16.2577 6.07649 16.1781 6.23899 16.0796L6.28274 16.0554L6.37883 15.9952C6.51729 16.4592 6.52984 16.9515 6.41521 17.4219C6.30057 17.8922 6.06287 18.3236 5.72649 18.6718ZM10.321 15.5468C10.1015 16.082 9.64211 17.4531 9.36243 17.3765C9.12258 17.3124 8.9718 16.2734 9.31477 15.2468C9.48794 14.7526 9.74017 14.2898 10.0616 13.8765C10.4054 13.4929 10.7851 13.3648 10.8765 13.521C10.7931 14.2202 10.6059 14.9029 10.321 15.5468ZM14.1124 17.3609C14.0202 17.4085 13.9327 17.439 13.8929 17.4171C13.8648 17.4015 13.9327 17.339 13.9327 17.339C13.9327 17.339 14.4085 16.8273 14.596 16.596C14.7038 16.4601 14.8304 16.3007 14.9679 16.1202V16.1718C14.9679 16.7827 14.3765 17.1945 14.1132 17.3624L14.1124 17.3609ZM17.0374 16.6937C16.9695 16.646 16.9812 16.4859 17.2093 15.9867C17.3679 15.666 17.5895 15.3807 17.8609 15.1476C17.9025 15.2659 17.9241 15.3902 17.9249 15.5156C17.928 15.7824 17.8427 16.0427 17.6823 16.256C17.5219 16.4692 17.2954 16.6234 17.0382 16.6945L17.0374 16.6937Z" fill="#CD6799"/>
</svg>
