<svg width="22" height="22" viewBox="0 0 22 22" fill="none" xmlns="http://www.w3.org/2000/svg">
<path d="M10 1C10 0.44772 10.4477 0 11 0C11.0161 0 11.0322 0.000379998 11.0481 0.00114C11.0632 0.000509998 11.0785 0.000260053 11.0938 0.000390053C13.1199 0.0176501 15.1091 0.59455 16.8374 1.67665C18.8492 2.93625 20.3996 4.8128 21.2571 7.02608C22.1146 9.2394 22.2332 11.6706 21.5951 13.9569C20.9571 16.2431 19.5967 18.2616 17.717 19.711C15.8373 21.1604 13.5393 21.9629 11.1659 21.9988C8.79262 22.0346 6.47138 21.3017 4.54884 19.9097C2.6263 18.5177 1.2056 16.5411 0.49889 14.2752C-0.108241 12.3285 -0.160447 10.258 0.33799 8.29413C0.47385 7.75881 1.05308 7.48753 1.57385 7.67143C2.09462 7.85532 2.36505 8.4271 2.24007 8.96506C1.8794 10.5176 1.93657 12.1446 2.4147 13.6776C2.99248 15.5302 4.15399 17.1461 5.72579 18.2842C7.29758 19.4223 9.1953 20.0214 11.1357 19.9921C13.076 19.9629 14.9548 19.3068 16.4916 18.1218C18.0283 16.9368 19.1405 15.2866 19.6622 13.4174C20.1838 11.5483 20.0869 9.5606 19.3858 7.75108C18.6847 5.94158 17.4172 4.40739 15.7724 3.37759C14.6232 2.65806 13.3329 2.21174 12 2.06259V4C12 4.55229 11.5523 5 11 5C10.4477 5 10 4.55229 10 4V1Z" fill="#B3B3B3"/>
<path fill-rule="evenodd" clip-rule="evenodd" d="M4.31204 2.92538C3.91542 2.66096 3.3873 2.71326 3.05024 3.05032C2.71317 3.38739 2.66088 3.91551 2.92529 4.31213L8.30752 12.3855C8.50567 12.6827 8.80928 13.101 9.28299 13.3927C9.62819 13.6053 10.1764 13.8627 10.8475 13.871C11.5576 13.8799 12.2918 13.6077 12.9497 12.9498C13.6076 12.2919 13.8798 11.5577 13.871 10.8475C13.8626 10.1764 13.6053 9.62831 13.3927 9.28311C13.1009 8.80936 12.6826 8.50575 12.3854 8.3076L4.31204 2.92538ZM9.97159 11.2761L7.3629 7.36298L11.276 9.97171C11.5267 10.1388 11.6362 10.2449 11.6897 10.3319C11.7963 10.5049 11.8689 10.6951 11.8711 10.8724C11.8728 11.0107 11.8361 11.235 11.5355 11.5356C11.2349 11.8362 11.0106 11.8729 10.8723 11.8712C10.695 11.869 10.5048 11.7964 10.3318 11.6898C10.2448 11.6362 10.1388 11.5267 9.97159 11.2761Z" fill="#B3B3B3"/>
</svg>
