<svg width="32" height="33" viewBox="0 0 32 33" fill="none" xmlns="http://www.w3.org/2000/svg">
<path d="M22.0947 25.5189C18.8895 27.3626 14.4822 27.552 10.0482 25.6598C6.45806 24.139 3.47918 21.4766 1.56958 18.4348C2.48619 19.1953 3.55554 19.8039 4.70128 20.336C9.28035 22.473 13.8585 22.3267 17.0803 20.3414C12.4972 16.8429 8.59684 12.2739 5.6944 8.54764C5.08307 7.93914 4.62476 7.17856 4.16646 6.49408C7.68009 9.68838 13.2563 13.7191 15.2418 14.8604C11.0414 10.4488 7.2983 4.97318 7.45076 5.12499C14.0963 11.8179 20.2837 15.6208 20.2837 15.6208C20.4884 15.7358 20.6464 15.8314 20.7734 15.917C20.9073 15.5778 21.0248 15.2256 21.1237 14.8604C22.193 10.9816 20.9712 6.56999 18.2975 2.91956C24.4843 6.64624 28.1511 13.6431 26.623 19.4996C26.5831 19.6576 26.5398 19.8136 26.4931 19.9667C29.5481 23.7697 28.7616 27.866 28.3798 27.1055C26.7225 23.8764 23.6545 24.8638 22.0947 25.5189Z" fill="url(#paint0_linear_156_433)"/>
<defs>
<linearGradient id="paint0_linear_156_433" x1="15.1752" y1="2.91956" x2="15.1752" y2="27.1988" gradientUnits="userSpaceOnUse">
<stop stop-color="#F88A36"/>
<stop offset="1" stop-color="#FD2020"/>
</linearGradient>
</defs>
</svg>
