<svg width="33" height="32" viewBox="0 0 33 32" fill="none" xmlns="http://www.w3.org/2000/svg">
<path d="M24.1053 8.93677C24.932 9.12909 25.6832 9.56196 26.2641 10.1808C26.5841 10.5157 26.862 10.8884 27.0915 11.2908C27.1022 11.3345 25.6018 12.3425 24.6919 12.9048C24.6589 12.9271 24.5278 12.7843 24.3792 12.5649C24.213 12.2791 23.977 12.0402 23.6934 11.8704C23.4098 11.7005 23.0878 11.6054 22.7574 11.5937C21.7115 11.5219 21.0376 12.0696 21.0424 12.9854C21.0334 13.2103 21.0847 13.4336 21.191 13.6321C21.4212 14.108 21.8485 14.3935 23.1905 14.9752C25.6611 16.0386 26.7215 16.7397 27.3761 17.7361C27.746 18.3656 27.9739 19.0684 28.0437 19.7953C28.1135 20.5222 28.0235 21.2555 27.78 21.9439C27.4455 22.6989 26.9149 23.3506 26.2435 23.8313C25.572 24.312 24.7841 24.6042 23.9616 24.6776C23.0873 24.7779 22.2039 24.7688 21.3318 24.6504C19.996 24.4309 18.7655 23.7898 17.8203 22.8208C17.4631 22.4186 17.1607 21.971 16.921 21.4894C17.0218 21.4145 17.1279 21.3469 17.2386 21.2874C17.392 21.2 17.9727 20.866 18.5204 20.5484L19.5149 19.9658L19.7227 20.2687C20.0727 20.7693 20.5183 21.1957 21.0337 21.5234C21.5542 21.8089 22.1439 21.9443 22.7368 21.9142C23.3298 21.8842 23.9027 21.6901 24.3918 21.3535C24.6441 21.1076 24.8018 20.7808 24.8373 20.4303C24.8728 20.0798 24.7839 19.728 24.586 19.4365C24.318 19.0529 23.7703 18.7305 22.2136 18.0556C20.993 17.644 19.8812 16.9617 18.9613 16.0599C18.5233 15.5607 18.1998 14.9717 18.0135 14.3342C17.8758 13.608 17.8555 12.8644 17.9533 12.1317C18.1361 11.2887 18.5736 10.5221 19.2066 9.93604C19.8396 9.34995 20.6374 8.97263 21.4921 8.8552C22.3623 8.75121 23.2433 8.7787 24.1053 8.93677ZM16.0033 10.3769L16.014 11.7889H11.5177V24.5572H8.34701V11.7919H3.85074V10.4051C3.83878 9.93019 3.85175 9.45499 3.88958 8.98144C3.90609 8.95911 6.63979 8.94842 9.95421 8.95425L15.9858 8.97076L16.0033 10.3769Z" fill="#007ACC"/>
</svg>
